<?xml version="1.0" encoding="UTF-8" standalone="no"?>
<svg width="800" height="600" xmlns="http://www.w3.org/2000/svg">
  <rect width="800" height="600" fill="#f5f7fa"/>
  <rect x="100" y="50" width="600" height="500" rx="8" fill="white" stroke="#e1e4e8" stroke-width="1"/>
  <text x="400" y="100" font-family="Arial" font-size="24" text-anchor="middle" fill="#2c3e50">Diabetes Prediction Result</text>
  
  <!-- Result Box -->
  <rect x="150" y="130" width="500" height="100" rx="8" fill="#edfff5" stroke="#2ecc71" stroke-width="2"/>
  <text x="400" y="180" font-family="Arial" font-size="22" text-anchor="middle" fill="#2c3e50">Prediction: <tspan fill="#2ecc71" font-weight="bold">Negative</tspan></text>
  <text x="400" y="210" font-family="Arial" font-size="16" text-anchor="middle" fill="#2c3e50">Probability: <tspan font-weight="bold">78.5%</tspan></text>
  
  <!-- Features Summary -->
  <rect x="150" y="250" width="500" height="220" rx="8" fill="white" stroke="#e1e4e8" stroke-width="1"/>
  <text x="170" y="280" font-family="Arial" font-size="18" fill="#2c3e50" font-weight="bold">Input Features:</text>
  
  <!-- Table Headers -->
  <rect x="170" y="300" width="200" height="30" fill="#f8f9fa" stroke="#e1e4e8" stroke-width="1"/>
  <rect x="370" y="300" width="260" height="30" fill="#f8f9fa" stroke="#e1e4e8" stroke-width="1"/>
  <text x="180" y="320" font-family="Arial" font-size="14" fill="#2c3e50" font-weight="bold">Feature</text>
  <text x="380" y="320" font-family="Arial" font-size="14" fill="#2c3e50" font-weight="bold">Value</text>
  
  <!-- Table Rows -->
  <rect x="170" y="330" width="200" height="30" fill="white" stroke="#e1e4e8" stroke-width="1"/>
  <rect x="370" y="330" width="260" height="30" fill="white" stroke="#e1e4e8" stroke-width="1"/>
  <text x="180" y="350" font-family="Arial" font-size="14" fill="#2c3e50">Pregnancies</text>
  <text x="380" y="350" font-family="Arial" font-size="14" fill="#2c3e50">2</text>
  
  <rect x="170" y="360" width="200" height="30" fill="white" stroke="#e1e4e8" stroke-width="1"/>
  <rect x="370" y="360" width="260" height="30" fill="white" stroke="#e1e4e8" stroke-width="1"/>
  <text x="180" y="380" font-family="Arial" font-size="14" fill="#2c3e50">Glucose</text>
  <text x="380" y="380" font-family="Arial" font-size="14" fill="#2c3e50">95</text>
  
  <rect x="170" y="390" width="200" height="30" fill="white" stroke="#e1e4e8" stroke-width="1"/>
  <rect x="370" y="390" width="260" height="30" fill="white" stroke="#e1e4e8" stroke-width="1"/>
  <text x="180" y="410" font-family="Arial" font-size="14" fill="#2c3e50">Blood Pressure</text>
  <text x="380" y="410" font-family="Arial" font-size="14" fill="#2c3e50">70</text>
  
  <rect x="170" y="420" width="200" height="30" fill="white" stroke="#e1e4e8" stroke-width="1"/>
  <rect x="370" y="420" width="260" height="30" fill="white" stroke="#e1e4e8" stroke-width="1"/>
  <text x="180" y="440" font-family="Arial" font-size="14" fill="#2c3e50">BMI</text>
  <text x="380" y="440" font-family="Arial" font-size="14" fill="#2c3e50">24.5</text>
  
  <!-- Back Button -->
  <rect x="150" y="490" width="500" height="40" rx="4" fill="#7f8c8d" stroke="none"/>
  <text x="400" y="515" font-family="Arial" font-size="16" text-anchor="middle" fill="white">Make Another Prediction</text>
</svg>
